# xmcd
#
# Track frame offsets:
#	150
#	14921
#	29147
#	45172
#	59314
#	73458
#	89643
#	102198
#	120476
#	138993
#	151411
#
# Disc length: 2223 seconds
#
# Revision: 1
# Processed by: cddbd v1.5.2PL0 Copyright (c) Steve Scherf et al.
# Submitted via: audiograbber 1.83.01
#
DISCID=9d08ad0b
DTITLE=Jamie Suttle - Country Music Revival
DYEAR=2017
DGENRE=Country
TTITLE0=Country Music Revival
TTITLE1=Cash, Jack and Jesus
TTITLE2=Your Kind Of Trouble
TTITLE3=Call Me Jolene
TTITLE4=Sound Of Letting Go
TTITLE5=Wasting Time On You
TTITLE6=Devil's Due
TTITLE7=Million Miles
TTITLE8=Let It Fade
TTITLE9=Little Bit Wrong
TTITLE10=That's What I Get (For Loving You)
EXTD=
EXTT0=
EXTT1=
EXTT2=
EXTT3=
EXTT4=
EXTT5=
EXTT6=
EXTT7=
EXTT8=
EXTT9=
EXTT10=
PLAYORDER=
